# xmcd CD database file
#
# Track frame offsets:
#	150
#	9258
#	18470
#	33957
#	46362
#	67304
#	77918
#	93949
#	103656
#	112098
#	121552
#	137996
#	151342
#	178246
#
# Disc length: 2536 seconds
#
# Revision: 1
# Processed by: cddbd v1.5.2PL0 Copyright (c) Steve Scherf et al.
# Submitted via: CDex 1.51
#
DISCID=b609e60e
DTITLE=Olenka and The Autumn Lovers - And Now We Sing
DYEAR=2010
DGENRE=Folk-Rock
TTITLE0=Odessa
TTITLE1=Clean
TTITLE2=East End
TTITLE3=Motel Blues
TTITLE4=Go
TTITLE5=Mary's Song
TTITLE6=No Coins
TTITLE7=Lark
TTITLE8=Sparrow 
TTITLE9=Shame
TTITLE10=Berlin
TTITLE11=Mama's Bag
TTITLE12=Louise Of Littleville
TTITLE13=Sweet Little Road
EXTD=YEAR: 2010
EXTT0=
EXTT1=
EXTT2=
EXTT3=
EXTT4=
EXTT5=
EXTT6=
EXTT7=
EXTT8=
EXTT9=
EXTT10=
EXTT11=
EXTT12=
EXTT13=
PLAYORDER=
